<?xml version="1.0" standalone="no"?>
<!DOCTYPE svg PUBLIC "-//W3C//DTD SVG 20010904//EN"
 "http://www.w3.org/TR/2001/REC-SVG-20010904/DTD/svg10.dtd">
<svg version="1.0" xmlns="http://www.w3.org/2000/svg"
 width="768.000000pt" height="180.000000pt" viewBox="0 0 768.000000 301.000000"
 preserveAspectRatio="xMidYMid meet">

<g transform="translate(0.000000,301.000000) scale(0.100000,-0.100000)"
fill="#ffffff" stroke="none">
<path d="M6305 2860 c-7 -12 14 -213 23 -221 4 -3 26 -11 50 -18 166 -47 195
-270 45 -356 -29 -16 -54 -34 -56 -40 -4 -11 9 -156 18 -194 5 -21 10 -23 43
-17 66 10 157 63 210 121 230 252 111 642 -219 720 -75 17 -105 19 -114 5z
m169 -118 c2 -4 -11 -12 -30 -18 -35 -11 -43 -7 -22 14 14 14 44 16 52 4z m4
-87 c-6 -13 -15 -22 -19 -19 -11 6 8 44 21 44 6 0 5 -10 -2 -25z m132 -75 c0
-5 -5 -10 -11 -10 -5 0 -7 5 -4 10 3 6 8 10 11 10 2 0 4 -4 4 -10z m75 -162
c6 -4 2 -8 -7 -8 -10 0 -18 7 -18 17 0 9 3 12 8 7 4 -5 12 -12 17 -16z m-43
-50 c-7 -7 -12 -8 -12 -2 0 14 12 26 19 19 2 -3 -1 -11 -7 -17z m-25 -164 c-3
-3 -12 -4 -19 -1 -8 3 -5 6 6 6 11 1 17 -2 13 -5z"/>
<path d="M6182 2841 c-255 -89 -368 -398 -229 -630 71 -118 205 -202 327 -205
l65 -1 -3 76 c-6 129 -11 141 -64 160 -67 24 -103 53 -127 102 -49 100 -9 217
91 268 20 10 39 22 41 26 3 5 0 55 -6 113 -14 119 -14 119 -95 91z"/>
<path d="M5248 2758 c-15 -12 -15 -24 -5 -118 l12 -105 86 -1 c71 -1 93 -5
123 -23 107 -66 131 -202 53 -296 -34 -42 -96 -74 -142 -75 -16 0 -41 -3 -54
-7 -23 -6 -23 -7 -16 -102 10 -129 12 -133 83 -125 92 9 155 31 222 76 297
198 231 663 -109 768 -74 23 -227 28 -253 8z"/>
<path d="M5085 2748 c-49 -5 -96 -10 -102 -13 -7 -2 -13 -19 -13 -38 0 -34 64
-695 76 -776 l6 -44 106 7 c59 4 111 11 117 17 6 6 -4 147 -29 397 -43 441
-44 449 -59 454 -7 2 -52 0 -102 -4z m53 -60 c20 -20 14 -28 -18 -21 -26 5
-30 3 -30 -17 0 -12 -5 -20 -12 -18 -20 7 -20 26 1 47 24 24 42 26 59 9z m-88
-78 c0 -22 -7 -25 -29 -11 -16 10 -6 31 15 31 8 0 14 -9 14 -20z m118 -33 c3
-39 2 -41 -14 -25 -24 24 -28 68 -6 68 13 0 18 -11 20 -43z m-98 -7 c0 -12
-40 -53 -46 -47 -9 8 19 57 33 57 7 0 13 -4 13 -10z m40 -10 c0 -5 -7 -7 -15
-4 -8 4 -15 8 -15 10 0 2 7 4 15 4 8 0 15 -4 15 -10z m-16 -51 c16 -23 39 -18
29 6 -7 19 16 19 42 -1 20 -15 27 -52 18 -87 -6 -24 -23 -11 -23 18 0 25 -26
41 -44 26 -8 -7 -25 -6 -49 3 -47 16 -53 23 -28 31 12 3 21 11 21 16 0 16 18
10 34 -12z m-24 -63 c0 -2 3 -11 6 -20 9 -23 -13 -20 -26 4 -9 16 -8 20 5 20
8 0 15 -2 15 -4z m60 -31 c0 -8 -2 -15 -4 -15 -2 0 -6 7 -10 15 -3 8 -1 15 4
15 6 0 10 -7 10 -15z m50 -39 c0 -3 -4 -8 -10 -11 -5 -3 -10 -1 -10 4 0 6 5
11 10 11 6 0 10 -2 10 -4z m-57 -46 c9 -11 17 -22 17 -25 0 -11 -39 -4 -43 8
-4 9 -8 8 -16 -3 -8 -12 -6 -16 10 -20 19 -5 19 -5 0 -22 -31 -26 -54 16 -35
66 9 22 46 20 67 -4z m74 -62 c-3 -8 -6 -5 -6 6 -1 11 2 17 5 13 3 -3 4 -12 1
-19z m-47 -44 c0 -8 -6 -14 -12 -14 -16 -1 39 -43 64 -50 11 -3 19 -9 19 -15
1 -17 -18 -16 -36 2 -11 10 -33 18 -54 18 l-36 0 3 41 c3 37 6 40 28 36 13 -2
24 -11 24 -18z m-70 -10 c0 -8 -4 -12 -10 -9 -5 3 -10 13 -10 21 0 8 5 12 10
9 6 -3 10 -13 10 -21z m120 0 c0 -17 -22 -14 -28 4 -2 7 3 12 12 12 9 0 16 -7
16 -16z m-33 -99 c19 -20 14 -26 -15 -18 -12 3 -22 12 -22 19 0 19 18 18 37
-1z m-67 -30 c-15 -19 4 -47 26 -38 16 6 18 -5 5 -26 -8 -12 -13 -12 -35 3
-34 22 -37 76 -5 76 18 0 19 -2 9 -15z m107 -56 c-6 -10 -21 -18 -32 -18 -17
1 -17 2 -2 6 18 5 24 23 7 23 -5 0 -10 4 -10 9 0 4 11 6 24 4 22 -4 23 -8 13
-24z m-33 -75 c4 -9 5 -19 2 -21 -8 -8 -47 18 -41 28 10 15 32 11 39 -7z"/>
<path d="M4581 2700 c-89 -10 -167 -22 -171 -27 -5 -4 -3 -55 3 -113 11 -97
14 -105 34 -108 28 -4 433 37 446 45 8 5 5 75 -10 181 l-5 42 -67 -1 c-36 -1
-140 -10 -230 -19z m9 -110 c12 -8 11 -10 -7 -10 -12 0 -25 5 -28 10 -8 13 15
13 35 0z"/>
<path d="M4203 2661 c-28 -4 -55 -10 -59 -14 -4 -4 10 -177 30 -384 46 -459
46 -461 60 -466 6 -2 56 1 111 7 97 11 100 12 103 37 3 25 -45 530 -69 737
l-11 92 -57 -1 c-31 -1 -79 -5 -108 -8z m63 -100 c-13 -20 -26 -11 -26 16 0
25 1 26 16 11 9 -9 13 -21 10 -27z m24 -61 c26 -24 29 -32 21 -49 -18 -33 -13
-51 13 -51 31 0 36 -9 42 -65 3 -43 2 -45 -22 -45 -14 0 -23 4 -20 9 3 5 3 23
0 40 -5 25 -9 29 -20 20 -8 -6 -14 -18 -14 -25 0 -17 -2 -17 -35 -2 -14 6 -25
19 -25 29 0 10 -4 20 -9 24 -13 8 -35 110 -28 129 10 27 61 19 97 -14z m57
-82 c-3 -8 -6 -5 -6 6 -1 11 2 17 5 13 3 -3 4 -12 1 -19z m-101 -120 c-1 -15
6 -23 19 -25 11 -2 37 -9 58 -15 43 -13 52 -34 10 -22 -33 9 -60 9 -89 -1 -18
-6 -22 -2 -26 25 -3 20 1 37 9 46 19 18 20 18 19 -8z m14 -108 c0 -5 -5 -10
-11 -10 -5 0 -7 5 -4 10 3 6 8 10 11 10 2 0 4 -4 4 -10z m35 1 c3 -5 1 -12 -4
-15 -5 -3 -11 1 -15 9 -6 16 9 21 19 6z m83 -29 c4 -14 -34 -16 -42 -3 -6 10
13 21 28 17 6 -1 12 -8 14 -14z m6 -138 c9 -24 7 -34 -8 -34 -13 0 -26 20 -26
41 0 15 27 10 34 -7z m-85 -33 c20 -5 22 -8 9 -19 -13 -10 -20 -9 -39 8 -25
20 -16 24 30 11z"/>
<path d="M4245 2450 c-3 -5 -1 -10 4 -10 6 0 11 -8 11 -17 0 -13 3 -14 11 -6
13 13 5 43 -10 43 -5 0 -13 -4 -16 -10z"/>
<path d="M3735 2614 c-11 -2 -51 -6 -89 -9 l-69 -7 7 -99 c4 -55 10 -107 13
-116 5 -13 19 -15 99 -9 91 7 95 6 118 -18 34 -33 41 -67 22 -105 -18 -33 -45
-44 -151 -58 l-60 -8 2 -80 c1 -44 5 -95 8 -112 5 -29 10 -33 39 -33 30 0 40
-9 107 -97 l75 -98 54 1 c95 1 210 15 210 26 0 6 -36 59 -80 118 -44 59 -80
111 -80 115 0 4 16 25 35 46 79 88 106 209 70 324 -21 65 -85 142 -149 179
-31 19 -156 53 -160 45 -1 -1 -10 -3 -21 -5z m185 -754 c0 -5 -2 -10 -4 -10
-3 0 -8 5 -11 10 -3 6 -1 10 4 10 6 0 11 -4 11 -10z"/>
<path d="M3383 2581 c-34 -3 -64 -9 -68 -13 -9 -9 73 -840 84 -851 7 -7 198
10 213 19 13 8 10 53 -27 426 -47 474 -37 428 -93 426 -26 0 -75 -4 -109 -7z
m106 -91 c13 -6 17 -17 14 -35 -3 -15 -1 -25 6 -25 6 0 11 -7 11 -15 0 -8 -4
-15 -10 -15 -5 0 -10 7 -10 15 0 8 -7 15 -16 15 -12 0 -15 6 -11 21 4 15 2 19
-9 15 -9 -3 -14 1 -14 14 0 22 12 25 39 10z m-19 -104 c0 -3 -4 -8 -10 -11 -5
-3 -10 -1 -10 4 0 6 5 11 10 11 6 0 10 -2 10 -4z m-69 -33 c1 -16 0 -32 -1
-38 -2 -5 -2 -20 -2 -32 1 -12 -3 -25 -8 -28 -6 -4 -10 19 -10 59 0 37 4 66
10 66 6 0 11 -12 11 -27z m79 -28 c0 -8 -4 -15 -9 -15 -5 0 -11 7 -15 15 -3 9
0 15 9 15 8 0 15 -7 15 -15z m-30 -10 c10 -12 10 -19 2 -27 -14 -14 -17 -11
-26 20 -8 25 5 29 24 7z m60 -92 c0 -17 -37 -36 -45 -23 -9 15 -25 2 -25 -21
0 -12 7 -19 19 -19 23 0 45 -25 36 -40 -4 -6 -2 -17 5 -25 8 -10 8 -19 0 -34
-12 -24 2 -61 24 -61 9 0 11 14 8 55 -3 35 -1 55 6 55 15 0 22 -28 18 -70 -2
-19 1 -40 6 -47 11 -14 1 -53 -13 -53 -5 0 -9 -9 -9 -20 0 -11 7 -20 15 -20
21 0 19 -9 -7 -29 -12 -10 -18 -23 -14 -30 4 -6 10 -9 14 -7 4 2 8 -7 8 -20 2
-24 1 -25 -23 -9 -30 20 -42 12 -24 -16 17 -28 13 -29 -37 -16 -43 12 -51 23
-29 46 10 11 10 14 0 18 -27 10 -12 24 17 18 29 -6 30 -6 24 24 -4 19 -2 37 6
46 10 12 8 24 -10 62 l-23 48 -9 -28 c-7 -19 -6 -32 2 -42 9 -10 9 -15 1 -15
-6 0 -8 -11 -5 -29 6 -27 4 -28 -21 -23 -27 5 -28 5 -22 68 4 39 2 64 -3 64
-6 0 -10 5 -10 11 0 5 4 8 8 5 11 -7 68 52 59 61 -4 3 -15 -1 -25 -10 -27 -24
-32 -21 -19 13 10 25 8 32 -11 53 -17 18 -21 31 -16 51 3 14 10 26 16 26 5 0
6 -4 3 -10 -12 -19 20 -10 50 15 27 22 31 22 43 8 6 -9 12 -23 12 -30z m40
-26 c0 -29 -7 -37 -25 -30 -11 4 -11 10 -3 29 14 31 28 31 28 1z m25 -427 c-3
-5 -14 -10 -23 -10 -15 0 -15 2 -2 10 20 13 33 13 25 0z"/>
<path d="M2694 2500 c-217 -77 -334 -295 -279 -520 36 -145 148 -261 294 -304
57 -17 137 -21 144 -8 3 4 0 54 -6 111 l-12 104 -53 17 c-92 30 -142 97 -142
190 0 82 50 159 118 181 l35 11 -7 100 c-6 93 -17 139 -34 137 -4 0 -30 -9
-58 -19z m4 -123 c8 -9 3 -15 -24 -23 -35 -11 -39 -8 -28 20 7 19 37 21 52 3z
m12 -77 c0 -5 -5 -10 -11 -10 -5 0 -7 5 -4 10 3 6 8 10 11 10 2 0 4 -4 4 -10z
m-105 -320 c-3 -5 -11 -10 -16 -10 -6 0 -7 5 -4 10 3 6 11 10 16 10 6 0 7 -4
4 -10z"/>
<path d="M2814 2434 c11 -138 10 -137 64 -155 26 -9 54 -19 63 -23 13 -6 34
14 88 80 67 80 71 88 56 104 -30 33 -136 73 -208 78 l-70 5 7 -89z m104 14
c-6 -18 -28 -21 -28 -4 0 9 7 16 16 16 9 0 14 -5 12 -12z m33 -31 c-8 -8 -11
-7 -11 4 0 20 13 34 18 19 3 -7 -1 -17 -7 -23z m59 9 c0 -3 -4 -8 -10 -11 -5
-3 -10 -1 -10 4 0 6 5 11 10 11 6 0 10 -2 10 -4z m-42 -47 c1 -8 -4 -23 -12
-34 -15 -19 -15 -18 -16 18 0 27 4 37 13 35 6 -3 13 -11 15 -19z m-76 -4 c0
-5 -5 -11 -11 -13 -6 -2 -11 4 -11 13 0 9 5 15 11 13 6 -2 11 -8 11 -13z"/>
<path d="M2010 2440 c-91 -10 -175 -19 -186 -19 -31 -1 -32 -13 -20 -126 l11
-100 45 -3 c53 -3 403 33 420 43 11 7 10 38 -6 178 l-6 47 -46 -1 c-26 -1
-121 -9 -212 -19z m-40 -110 c24 -15 7 -19 -20 -5 -15 8 -19 14 -10 14 8 1 22
-3 30 -9z"/>
<path d="M1607 2399 c-38 -4 -72 -10 -75 -14 -9 -8 76 -837 86 -847 9 -9 211
7 221 18 4 4 -60 693 -77 816 -5 37 -5 38 -46 37 -22 -1 -72 -5 -109 -10z m46
-83 c6 -15 -1 -26 -15 -26 -4 0 -8 9 -8 20 0 23 15 27 23 6z m9 -64 c7 -10 21
-21 32 -25 11 -5 16 -13 12 -23 -21 -54 -19 -64 13 -70 17 -4 32 -12 32 -18 9
-68 6 -86 -15 -86 -18 0 -22 6 -21 35 2 39 -19 49 -30 15 -3 -11 -12 -20 -18
-20 -20 1 -47 26 -47 44 0 9 -4 16 -9 16 -13 0 -34 96 -27 125 5 20 13 25 36
25 16 0 34 -8 42 -18z m-30 -217 c-4 -23 -1 -25 31 -25 20 0 39 -4 42 -10 3
-5 15 -10 26 -10 10 0 19 -7 19 -15 0 -13 -5 -13 -41 1 -30 13 -43 14 -52 5
-16 -16 -47 -14 -47 3 0 8 -3 21 -6 29 -3 8 2 22 11 31 22 21 23 20 17 -9z
m55 -121 c-9 -9 -28 6 -21 18 4 6 10 6 17 -1 6 -6 8 -13 4 -17z m83 -13 c0
-15 -16 -22 -34 -15 -25 9 -19 24 9 24 14 0 25 -4 25 -9z m-110 -25 c0 -3 -4
-8 -10 -11 -5 -3 -10 -1 -10 4 0 6 5 11 10 11 6 0 10 -2 10 -4z m100 -36 c0
-5 -2 -10 -4 -10 -3 0 -8 5 -11 10 -3 6 -1 10 4 10 6 0 11 -4 11 -10z m14 -87
c11 -29 -10 -36 -28 -9 -16 25 -16 26 3 26 10 0 22 -8 25 -17z m-77 -41 c-17
-17 -47 -10 -47 11 0 9 9 12 31 9 27 -4 29 -6 16 -20z m43 -42 c0 -5 -2 -10
-4 -10 -3 0 -8 5 -11 10 -3 6 -1 10 4 10 6 0 11 -4 11 -10z"/>
<path d="M1643 2166 c10 -20 14 -22 20 -10 10 17 1 34 -18 34 -10 0 -11 -5 -2
-24z"/>
<path d="M1220 2362 c-80 -7 -150 -19 -156 -25 -14 -15 2 -196 20 -214 9 -10
42 -10 161 3 83 8 154 19 158 23 12 12 -13 219 -27 223 -6 2 -76 -2 -156 -10z"/>
<path d="M4560 2355 c-63 -7 -117 -13 -119 -14 -8 -2 10 -166 19 -175 5 -5 66
-3 150 4 109 11 143 17 149 29 9 17 -2 141 -13 160 -8 13 -33 13 -186 -4z
m137 -61 c7 -22 -26 -24 -38 -3 -9 18 -8 20 12 17 12 -2 24 -8 26 -14z m-67 2
c0 -3 -9 -20 -20 -40 -23 -39 -48 -52 -64 -35 -8 8 -8 13 2 16 6 3 12 13 12
23 0 11 11 22 28 28 31 12 42 14 42 8z"/>
<path d="M908 2329 c-71 -10 -123 -36 -169 -86 -60 -63 -74 -98 -73 -188 0
-91 14 -127 73 -188 77 -82 137 -95 341 -74 151 15 167 14 176 -16 9 -29 -28
-57 -75 -57 -61 0 -65 -7 -57 -102 11 -132 9 -128 75 -128 122 0 217 54 268
154 22 41 27 64 26 121 0 39 -7 86 -15 106 -22 50 -73 105 -127 137 -45 26
-49 27 -176 23 -71 -2 -161 -4 -200 -5 l-70 -1 0 30 c0 28 3 30 50 38 80 14
80 15 77 98 -2 41 -7 90 -11 109 -8 40 -20 43 -113 29z m-41 -111 c-3 -7 -5
-2 -5 12 0 14 2 19 5 13 2 -7 2 -19 0 -25z m-27 -98 c0 -5 -5 -10 -11 -10 -5
0 -7 5 -4 10 3 6 8 10 11 10 2 0 4 -4 4 -10z m-105 -40 c3 -5 1 -10 -4 -10 -6
0 -11 5 -11 10 0 6 2 10 4 10 3 0 8 -4 11 -10z m70 -10 c34 0 40 -17 7 -23
-29 -6 -57 17 -45 36 5 8 8 7 11 -1 2 -7 14 -12 27 -12z m-2 -81 c10 -18 16
-32 15 -33 -2 -1 -15 -10 -30 -19 -35 -22 -37 -21 -31 3 4 14 0 20 -10 20 -9
0 -21 9 -27 20 -9 18 -8 20 15 20 14 0 25 5 25 10 0 21 26 8 43 -21z m69 -59
c20 0 24 -25 6 -36 -6 -4 -19 3 -30 16 -20 25 -26 52 -6 32 7 -7 20 -12 30
-12z m-57 -30 c-3 -5 -13 -10 -21 -10 -8 0 -14 5 -14 10 0 6 9 10 21 10 11 0
17 -4 14 -10z m465 0 c0 -5 -4 -10 -9 -10 -6 0 -13 5 -16 10 -3 6 1 10 9 10 9
0 16 -4 16 -10z m-326 -15 c3 -8 1 -15 -4 -15 -6 0 -10 7 -10 15 0 8 2 15 4
15 2 0 6 -7 10 -15z m216 -29 c0 -3 -4 -8 -10 -11 -5 -3 -10 -1 -10 4 0 6 5
11 10 11 6 0 10 -2 10 -4z"/>
<path d="M3075 2209 c-44 -4 -99 -11 -122 -14 l-43 -6 0 -52 c0 -29 3 -69 6
-89 6 -36 8 -38 45 -38 21 0 40 -4 43 -8 9 -15 -44 -70 -89 -91 -25 -12 -45
-26 -45 -32 0 -36 23 -205 29 -212 7 -7 63 8 128 34 29 12 34 11 45 -4 12 -16
22 -16 108 -7 52 5 101 10 108 10 17 0 15 77 -11 315 l-22 200 -50 1 c-27 1
-86 -2 -130 -7z m135 -33 c0 -11 -19 -15 -25 -6 -3 5 1 10 9 10 9 0 16 -2 16
-4z m-106 -74 c-10 -27 -15 -28 -66 -16 -22 5 -28 3 -28 -10 0 -9 -4 -16 -10
-16 -14 0 -13 16 3 41 10 17 10 23 0 26 -7 3 -13 9 -13 14 0 6 7 6 18 1 9 -5
32 -12 51 -16 27 -5 31 -3 22 7 -8 10 -7 17 2 26 18 18 33 -22 21 -57z m86 34
c0 -13 -20 -26 -41 -26 -16 0 -9 28 9 33 29 8 32 7 32 -7z m30 -41 c0 -8 -7
-15 -15 -15 -26 0 -18 20 13 29 1 1 2 -6 2 -14z m-84 -51 c-4 -12 -10 -14 -17
-7 -5 5 -7 17 -3 27 4 12 10 14 17 7 5 -5 7 -17 3 -27z m74 6 c0 -5 -4 -10
-10 -10 -5 0 -10 5 -10 10 0 6 5 10 10 10 6 0 10 -4 10 -10z m10 -45 c-7 -8
-19 -15 -28 -15 -12 0 -10 6 9 26 24 26 41 16 19 -11z m-140 -18 c0 -18 5 -38
12 -45 9 -9 9 -12 0 -12 -14 0 -46 66 -37 79 13 21 25 10 25 -22z m80 18 c0
-8 -9 -15 -20 -15 -22 0 -27 15 -7 23 21 9 27 7 27 -8z m-2 -53 c2 -7 -6 -12
-17 -12 -21 0 -27 11 -14 24 9 9 26 2 31 -12z m102 -25 c0 -5 -4 -5 -10 -2 -5
3 -10 14 -10 23 0 15 2 15 10 2 5 -8 10 -19 10 -23z m-11 -16 c11 -7 10 -11
-7 -20 -28 -15 -32 -14 -32 9 0 21 16 26 39 11z m-119 -30 c0 -10 7 -22 16
-25 9 -4 14 -9 11 -13 -4 -3 -13 0 -21 6 -8 7 -20 10 -26 6 -5 -3 -10 1 -10 9
0 8 -8 20 -17 25 -15 9 -12 10 15 11 25 0 32 -4 32 -19z m-45 -31 c3 -5 -3
-10 -14 -10 -12 0 -21 5 -21 10 0 6 6 10 14 10 8 0 18 -4 21 -10z m-105 -75
c0 -8 5 -15 10 -15 6 0 10 -4 10 -10 0 -5 -9 -10 -20 -10 -11 0 -20 4 -20 9 0
5 -3 16 -6 25 -4 11 -1 16 10 16 9 0 16 -7 16 -15z"/>
<path d="M1966 2094 c-65 -7 -123 -17 -129 -23 -13 -13 1 -157 16 -169 14 -11
275 14 292 28 12 10 8 120 -6 158 -10 25 -3 25 -173 6z m4 -48 c0 -3 -4 -8
-10 -11 -5 -3 -10 -1 -10 4 0 6 5 11 10 11 6 0 10 -2 10 -4z m109 -5 c16 -10
6 -31 -15 -31 -8 0 -14 2 -14 4 0 2 -3 11 -6 20 -7 18 12 21 35 7z m-80 -46
c-24 -41 -35 -49 -54 -41 -12 4 -12 9 0 32 16 31 32 44 57 44 16 0 15 -3 -3
-35z"/>
<path d="M4647 2070 c-93 -10 -171 -21 -175 -24 -7 -8 12 -213 21 -222 6 -6
428 33 456 42 11 4 12 23 7 100 -4 53 -10 102 -13 110 -7 18 -78 17 -296 -6z
m123 -171 c0 -6 -4 -7 -10 -4 -5 3 -10 11 -10 16 0 6 5 7 10 4 6 -3 10 -11 10
-16z"/>
<path d="M2055 1808 c-99 -11 -184 -23 -189 -28 -10 -10 6 -205 18 -217 8 -8
441 33 458 43 10 7 4 148 -9 202 -7 27 -26 28 -278 0z m105 -168 c0 -5 -2 -10
-4 -10 -3 0 -8 5 -11 10 -3 6 -1 10 4 10 6 0 11 -4 11 -10z"/>
<path d="M7385 1719 c-104 -11 -105 -12 -105 -56 0 -38 34 -394 46 -482 l6
-44 101 7 c60 4 107 12 115 20 10 10 8 61 -14 277 -14 145 -31 270 -36 277 -6
6 -16 11 -22 11 -6 -1 -47 -5 -91 -10z m45 -113 c0 -7 -14 -16 -32 -20 -36 -7
-41 -5 -32 18 8 20 64 22 64 2z m-74 -33 c20 -27 17 -34 -11 -21 -14 6 -25 17
-25 25 0 19 20 16 36 -4z m89 -3 c4 -6 1 -26 -5 -45 -9 -27 -17 -35 -36 -35
-29 0 -32 16 -5 25 12 4 18 12 14 21 -11 29 16 59 32 34z m42 -42 c-3 -8 -6
-5 -6 6 -1 11 2 17 5 13 3 -3 4 -12 1 -19z m-126 -13 c-1 -15 -24 -12 -29 3
-3 9 2 13 12 10 10 -1 17 -7 17 -13z m131 -37 c6 -46 3 -128 -4 -128 -5 0 -8
-6 -7 -12 4 -37 -3 -39 -26 -8 -30 41 -32 61 -5 78 14 8 20 23 20 47 0 32 18
51 22 23z m-152 -14 c0 -8 -4 -12 -10 -9 -5 3 -10 10 -10 16 0 5 5 9 10 9 6 0
10 -7 10 -16z m50 -2 c0 -28 -37 -59 -52 -44 -9 9 -9 12 0 12 7 0 12 6 12 13
0 14 20 37 32 37 4 0 8 -8 8 -18z m37 -26 c-6 -8 -15 -12 -19 -9 -4 2 -2 10 5
17 6 8 15 12 19 9 4 -2 2 -10 -5 -17z m-20 -46 c-3 -10 0 -22 7 -25 8 -3 7 -7
-2 -11 -7 -3 -19 -12 -27 -20 -14 -15 -31 -2 -20 15 3 5 0 13 -6 16 -6 5 0 14
18 25 36 24 36 24 30 0z m-7 -111 c0 -5 -7 -9 -15 -9 -8 0 -15 -4 -15 -8 0
-14 12 -22 23 -15 17 11 101 14 116 4 19 -12 7 -39 -24 -51 -14 -5 -25 -14
-25 -20 0 -17 -26 -11 -56 12 -23 19 -27 19 -21 5 5 -14 3 -16 -12 -8 -26 15
-35 69 -15 98 12 20 18 22 30 12 8 -6 14 -15 14 -20z"/>
<path d="M7455 1230 c-3 -5 -1 -10 4 -10 6 0 11 5 11 10 0 6 -2 10 -4 10 -3 0
-8 -4 -11 -10z"/>
<path d="M895 1693 c-71 -7 -134 -18 -139 -23 -9 -9 7 -206 18 -218 6 -5 247
14 300 24 l28 6 -7 97 c-4 53 -11 104 -16 114 -11 19 -9 19 -184 0z m-1 -78
c3 -8 1 -15 -4 -15 -6 0 -10 7 -10 15 0 8 2 15 4 15 2 0 6 -7 10 -15z m151
-85 c3 -5 2 -10 -4 -10 -5 0 -13 5 -16 10 -3 6 -2 10 4 10 5 0 13 -4 16 -10z"/>
<path d="M6776 1652 c-7 -12 12 -215 22 -223 4 -3 26 -11 50 -18 84 -24 142
-99 142 -185 0 -86 -39 -149 -112 -182 l-41 -18 7 -97 c3 -54 9 -104 12 -113
10 -26 56 -19 131 19 252 126 319 441 141 667 -38 49 -138 115 -202 133 -75
21 -143 29 -150 17z m168 -120 c2 -4 -11 -12 -30 -18 -35 -11 -43 -7 -22 14
14 14 44 16 52 4z m16 -69 c-1 -14 -27 -43 -33 -37 -8 9 11 44 23 44 6 0 10
-3 10 -7z m40 -77 c0 -3 -4 -8 -10 -11 -5 -3 -10 -1 -10 4 0 6 5 11 10 11 6 0
10 -2 10 -4z m155 -185 c-6 -5 -25 10 -25 20 0 5 6 4 14 -3 8 -7 12 -15 11
-17z m-39 -48 c-10 -10 -19 5 -10 18 6 11 8 11 12 0 2 -7 1 -15 -2 -18z m-29
-159 c-3 -3 -12 -4 -19 -1 -8 3 -5 6 6 6 11 1 17 -2 13 -5z"/>
<path d="M6651 1630 c-153 -55 -255 -181 -283 -347 -39 -236 152 -481 380
-486 l67 -2 -3 75 c-6 129 -11 142 -64 161 -67 24 -103 53 -127 102 -51 106
-9 216 108 279 31 17 31 17 24 80 -17 173 -15 170 -102 138z"/>
<path d="M5722 1550 c-17 -7 -21 -15 -18 -32 3 -13 8 -54 11 -93 10 -111 4
-105 98 -103 95 2 129 -11 176 -69 83 -101 47 -248 -74 -304 -22 -10 -53 -19
-70 -19 -16 0 -41 -3 -54 -7 -23 -6 -23 -7 -16 -96 4 -50 11 -101 16 -114 8
-22 12 -23 66 -17 93 9 156 31 223 76 298 199 232 662 -111 769 -65 20 -205
25 -247 9z"/>
<path d="M5550 1537 c-52 -5 -99 -13 -105 -18 -8 -8 53 -693 73 -818 l5 -34
105 7 c58 4 109 9 114 12 13 8 10 45 -27 419 -42 426 -43 432 -58 437 -7 2
-55 0 -107 -5z m58 -59 c20 -20 14 -28 -18 -21 -26 5 -30 3 -30 -17 0 -12 -5
-20 -12 -18 -20 7 -20 26 1 47 24 24 42 26 59 9z m-88 -78 c0 -22 -8 -25 -30
-10 -13 9 -13 11 0 20 22 15 30 12 30 -10z m118 -33 c3 -39 2 -41 -14 -25 -24
24 -28 68 -6 68 13 0 18 -11 20 -43z m-98 -7 c0 -14 -40 -53 -47 -46 -8 7 25
56 37 56 6 0 10 -4 10 -10z m40 -10 c0 -5 -7 -7 -15 -4 -8 4 -15 8 -15 10 0 2
7 4 15 4 8 0 15 -4 15 -10z m-16 -51 c16 -23 39 -18 29 6 -7 19 16 19 42 -1
20 -15 27 -52 18 -87 -6 -25 -23 -11 -23 20 0 23 -3 25 -31 21 -29 -4 -90 10
-105 24 -3 4 4 9 15 13 12 3 21 11 21 16 0 16 18 10 34 -12z m-16 -79 c10 -17
10 -20 -3 -20 -8 0 -19 9 -25 20 -8 15 -8 20 2 20 7 0 19 -9 26 -20z m52 -15
c0 -8 -2 -15 -4 -15 -2 0 -6 7 -10 15 -3 8 -1 15 4 15 6 0 10 -7 10 -15z m50
-45 c0 -5 -4 -10 -10 -10 -5 0 -10 5 -10 10 0 6 5 10 10 10 6 0 10 -4 10 -10z
m-56 -41 c17 -20 17 -22 -3 -35 -11 -8 -26 -21 -34 -29 -27 -26 -49 23 -31 69
9 23 46 20 68 -5z m81 -48 c3 -5 1 -12 -5 -16 -5 -3 -10 1 -10 9 0 18 6 21 15
7z m-55 -57 c0 -8 -6 -14 -12 -14 -16 -1 39 -43 64 -50 11 -3 18 -9 16 -15 -4
-12 -31 -7 -40 8 -4 7 -24 11 -45 11 l-38 -1 3 42 c3 38 6 41 28 37 13 -2 24
-11 24 -18z m-70 -10 c0 -8 -4 -12 -10 -9 -5 3 -10 13 -10 21 0 8 5 12 10 9 6
-3 10 -13 10 -21z m120 0 c0 -9 -5 -14 -12 -12 -18 6 -21 28 -4 28 9 0 16 -7
16 -16z m-33 -99 c19 -20 14 -26 -15 -18 -12 3 -22 12 -22 19 0 19 18 18 37
-1z m-67 -30 c-10 -12 -10 -18 0 -30 7 -9 19 -14 27 -11 15 6 17 -3 4 -23 -8
-12 -13 -12 -35 3 -37 24 -35 76 2 76 12 0 12 -3 2 -15z m107 -56 c-6 -10 -19
-19 -27 -19 -13 0 -13 1 0 11 11 8 12 12 3 16 -23 9 -14 20 11 16 22 -4 23 -8
13 -24z m-33 -75 c11 -29 6 -34 -19 -18 -14 9 -22 20 -19 25 9 14 31 10 38 -7z"/>
<path d="M5546 1095 c-4 -10 1 -15 14 -15 13 0 18 5 14 15 -4 8 -10 15 -14 15
-4 0 -10 -7 -14 -15z"/>
<path d="M4882 1475 c-62 -7 -118 -17 -123 -22 -16 -16 -251 -875 -242 -883
11 -11 220 12 233 26 6 6 45 132 87 280 41 148 77 271 79 273 2 3 8 0 13 -5
13 -12 81 -150 81 -162 0 -5 -24 -12 -52 -15 -30 -4 -58 -13 -64 -22 -14 -19
-67 -215 -60 -222 3 -3 59 -1 125 6 180 17 175 18 196 -29 31 -70 37 -72 159
-58 65 7 110 16 113 24 6 17 -393 810 -412 818 -9 3 -17 5 -18 5 -1 -1 -53 -7
-115 -14z m54 -149 c-10 -39 -23 -31 -18 10 3 24 8 32 14 26 6 -6 8 -22 4 -36z
m2 -98 c-32 -25 -38 -22 -25 11 9 25 13 27 29 18 17 -11 17 -13 -4 -29z m112
-88 c0 -5 -5 -10 -11 -10 -5 0 -7 5 -4 10 3 6 8 10 11 10 2 0 4 -4 4 -10z m60
-66 c0 -8 -4 -12 -10 -9 -5 3 -10 10 -10 16 0 5 5 9 10 9 6 0 10 -7 10 -16z
m140 -125 c0 -6 -4 -7 -10 -4 -5 3 -10 11 -10 16 0 6 5 7 10 4 6 -3 10 -11 10
-16z m64 -139 c5 -5 6 -16 3 -24 -6 -14 -10 -13 -32 6 -14 12 -25 26 -25 30 0
10 40 1 54 -12z m-86 -57 c-4 -22 -22 -20 -26 1 -2 10 3 16 13 16 10 0 15 -7
13 -17z m69 1 c-3 -3 -12 -4 -19 -1 -8 3 -5 6 6 6 11 1 17 -2 13 -5z m63 -16
c0 -19 -2 -20 -10 -8 -13 19 -13 30 0 30 6 0 10 -10 10 -22z m-672 -95 c-2
-10 -13 -19 -26 -21 -26 -4 -28 6 -4 24 24 18 34 17 30 -3z m-88 -23 c0 -11
-4 -20 -10 -20 -5 0 -10 9 -10 20 0 11 5 20 10 20 6 0 10 -9 10 -20z"/>
<path d="M3700 1348 c-47 -5 -89 -13 -94 -18 -8 -9 70 -839 80 -849 6 -7 212
14 221 22 6 7 -60 719 -76 812 -8 47 -8 47 -131 33z m160 -698 c0 -5 -4 -10
-9 -10 -6 0 -13 5 -16 10 -3 6 1 10 9 10 9 0 16 -4 16 -10z m-124 -29 c-3 -5
1 -12 10 -15 8 -3 12 -11 9 -17 -5 -7 -14 -4 -26 7 -15 13 -17 19 -7 26 17 10
20 10 14 -1z"/>
<path d="M3263 1306 c-116 -12 -215 -25 -219 -28 -8 -9 5 -201 16 -218 7 -11
49 -9 227 9 120 12 224 24 232 27 11 3 12 22 6 96 -7 101 -18 139 -37 137 -7
-1 -108 -11 -225 -23z m-37 -117 c3 -5 1 -9 -5 -9 -17 0 -41 12 -41 20 0 10
38 1 46 -11z"/>
<path d="M2895 1269 c-135 -14 -129 -10 -121 -82 3 -34 22 -219 41 -412 20
-192 38 -356 40 -364 4 -11 25 -12 108 -7 56 4 107 13 113 19 8 9 0 124 -31
422 -38 386 -46 437 -63 434 -4 -1 -43 -5 -87 -10z m65 -59 c0 -5 -4 -10 -10
-10 -5 0 -10 5 -10 10 0 6 5 10 10 10 6 0 10 -4 10 -10z m-60 -41 c0 -5 -7 -9
-15 -9 -9 0 -15 9 -15 21 0 18 2 19 15 9 8 -7 15 -16 15 -21z m7 -52 c4 -8 16
-17 27 -20 14 -6 17 -13 11 -35 -13 -49 -11 -57 18 -60 17 -2 27 -10 28 -20 1
-9 3 -34 4 -54 3 -32 1 -38 -16 -38 -18 0 -25 25 -20 69 4 28 -26 3 -46 -37 0
-2 -11 3 -23 10 -35 21 -76 131 -66 174 5 20 13 24 41 24 19 0 38 -6 42 -13z
m70 -99 c-3 -8 -6 -5 -6 6 -1 11 2 17 5 13 3 -3 4 -12 1 -19z m-66 -144 c22
-4 42 -11 45 -15 3 -5 14 -9 25 -9 10 0 19 -5 19 -11 0 -7 -9 -8 -27 -3 -29 8
-63 9 -98 3 -16 -3 -21 2 -23 24 -2 16 0 36 4 45 6 14 8 13 11 -5 4 -18 13
-24 44 -29z m19 -84 c0 -5 -4 -10 -10 -10 -5 0 -10 5 -10 10 0 6 5 10 10 10 6
0 10 -4 10 -10z m80 -26 c0 -10 -7 -14 -22 -12 -32 5 -35 28 -4 28 17 0 26 -5
26 -16z m-110 -24 c0 -5 -5 -10 -11 -10 -5 0 -7 5 -4 10 3 6 8 10 11 10 2 0 4
-4 4 -10z m118 -128 c2 -15 -2 -22 -12 -22 -9 0 -16 4 -16 9 0 5 -3 17 -6 26
-5 13 -2 16 12 13 11 -2 20 -13 22 -26z m-71 -27 c-5 -14 -50 -12 -54 2 -3 8
6 12 26 10 17 -1 29 -6 28 -12z"/>
<path d="M2875 1050 c-3 -5 -1 -10 4 -10 6 0 11 -8 11 -17 0 -13 3 -14 11 -6
13 13 5 43 -10 43 -5 0 -13 -4 -16 -10z"/>
<path d="M2559 1235 c-58 -6 -110 -14 -115 -18 -6 -3 -44 -126 -84 -272 l-74
-265 72 -145 c40 -80 76 -145 81 -145 12 0 12 -1 127 410 119 424 120 429 108
438 -5 5 -57 3 -115 -3z m-69 -459 c0 -3 -4 -8 -10 -11 -5 -3 -10 -1 -10 4 0
6 5 11 10 11 6 0 10 -2 10 -4z"/>
<path d="M1870 1168 c-52 -5 -99 -13 -104 -18 -5 -5 78 -183 195 -416 l203
-406 105 7 c58 3 113 11 123 16 16 9 -4 53 -187 419 -158 315 -209 410 -223
409 -9 -1 -60 -6 -112 -11z m70 -94 c0 -8 -4 -12 -10 -9 -5 3 -10 13 -10 21 0
8 5 12 10 9 6 -3 10 -13 10 -21z m7 -50 c3 -8 16 -20 29 -24 21 -8 22 -12 13
-40 -14 -39 -5 -64 21 -57 11 3 22 1 25 -3 3 -4 15 -6 26 -3 16 5 20 2 15 -8
-3 -8 -9 -22 -12 -31 -4 -10 -11 -18 -17 -18 -5 0 -2 -9 8 -20 10 -11 14 -20
9 -21 -5 0 -22 -2 -37 -4 -22 -3 -28 0 -26 13 1 9 1 27 0 40 l-1 23 -22 -20
c-20 -19 -22 -19 -34 -3 -7 9 -14 25 -14 35 0 9 -4 17 -10 17 -5 0 -10 11 -10
25 0 14 -4 25 -9 25 -13 0 -34 57 -27 75 7 20 65 20 73 -1z m86 -71 c-3 -18
-9 -30 -14 -27 -11 6 -12 68 -2 78 12 12 21 -18 16 -51z m87 -137 c-13 -13
-30 9 -30 39 1 19 2 18 21 -4 14 -17 17 -27 9 -35z m40 -47 c0 -10 5 -19 10
-19 6 0 10 -7 10 -15 0 -8 -7 -15 -15 -15 -8 0 -15 -7 -15 -15 0 -8 -7 -15
-16 -15 -13 0 -15 -6 -9 -27 6 -27 6 -27 -13 -10 -14 13 -28 15 -52 11 -25 -6
-32 -4 -28 7 2 8 15 16 29 17 29 5 59 30 59 50 0 12 -5 10 -23 -6 -30 -28 -40
-28 -31 1 8 27 24 39 46 33 11 -2 20 3 23 15 8 23 25 15 25 -12z m-110 -30 c0
-5 -6 -9 -13 -9 -19 0 -58 30 -52 40 6 10 65 -18 65 -31z m160 -59 c0 -5 -2
-10 -4 -10 -3 0 -8 5 -11 10 -3 6 -1 10 4 10 6 0 11 -4 11 -10z m-64 -74 c-11
-25 -19 -34 -30 -30 -18 7 -22 24 -6 24 6 0 18 19 28 43 13 33 18 37 20 21 2
-12 -4 -38 -12 -58z m67 -34 c-9 -6 -7 -12 7 -25 11 -9 25 -17 31 -17 6 0 8
-9 3 -22 -9 -30 -8 -30 -37 -23 -18 5 -24 12 -20 22 4 9 -1 22 -12 29 -15 11
-16 16 -5 29 7 8 20 15 29 15 11 0 13 -3 4 -8z m-5 -141 c3 -8 -1 -12 -9 -9
-7 2 -15 10 -17 17 -3 8 1 12 9 9 7 -2 15 -10 17 -17z m102 -22 c0 -5 -7 -9
-15 -9 -15 0 -20 12 -9 23 8 8 24 -1 24 -14z"/>
<path d="M1930 945 c12 -15 30 -12 30 6 0 5 -10 9 -21 9 -18 0 -19 -2 -9 -15z"/>
<path d="M1377 1120 c-93 -10 -173 -22 -178 -27 -11 -11 8 -203 22 -217 9 -10
418 26 452 40 15 5 16 16 11 73 -4 36 -9 84 -13 106 l-6 40 -60 2 c-33 0 -136
-7 -228 -17z m-2 -110 c8 -13 -15 -13 -35 0 -12 8 -11 10 7 10 12 0 25 -4 28
-10z"/>
<path d="M7426 1090 c-38 -5 -73 -13 -79 -19 -11 -11 4 -206 17 -218 7 -8 213
10 222 19 3 4 0 55 -8 115 l-13 108 -35 1 c-19 1 -66 -2 -104 -6z m61 -62 c6
29 21 28 33 -4 13 -33 13 -33 -12 -28 -13 2 -17 2 -10 -2 6 -3 12 -12 12 -19
0 -7 4 -15 9 -17 14 -5 18 -43 4 -41 -7 2 -10 -3 -7 -11 3 -8 -3 -16 -16 -19
-17 -4 -20 -2 -15 13 8 26 -13 35 -34 16 -17 -15 -20 -15 -43 4 -34 26 -43 60
-16 60 21 0 20 24 0 26 -28 3 -24 6 23 23 49 18 50 18 59 -3 9 -21 9 -21 13 2z"/>
<path d="M1010 1083 c-77 -8 -80 -10 -80 -56 1 -81 77 -798 86 -807 13 -12
217 12 221 27 5 14 -76 823 -83 835 -5 8 -73 9 -144 1z m107 -59 c-3 -3 -12
-4 -19 -1 -8 3 -5 6 6 6 11 1 17 -2 13 -5z m-71 -40 c-5 -13 -10 -14 -18 -6
-6 6 -8 18 -4 28 5 13 10 14 18 6 6 -6 8 -18 4 -28z m16 -54 c7 -11 19 -20 27
-20 10 0 12 -10 7 -45 -7 -43 -6 -45 18 -45 27 0 35 -16 41 -75 3 -31 0 -35
-21 -35 -14 0 -24 5 -23 13 1 6 1 26 0 42 l-2 30 -23 -28 c-21 -26 -25 -28
-45 -16 -11 8 -21 21 -21 31 0 9 -4 18 -8 20 -17 7 -41 101 -31 125 11 30 63
32 81 3z m78 -20 c0 -5 -4 -10 -10 -10 -5 0 -10 5 -10 10 0 6 5 10 10 10 6 0
10 -4 10 -10z m0 -70 c0 -5 -2 -10 -4 -10 -3 0 -8 5 -11 10 -3 6 -1 10 4 10 6
0 11 -4 11 -10z m-78 -150 c30 0 88 -22 88 -33 0 -5 -12 -6 -27 -1 -33 9 -60
9 -89 -1 -18 -6 -22 -2 -28 25 -8 42 2 57 21 31 8 -12 24 -21 35 -21z m-12
-74 c0 -3 -4 -8 -10 -11 -5 -3 -10 -1 -10 4 0 6 5 11 10 11 6 0 10 -2 10 -4z
m31 -9 c-1 -12 -15 -9 -19 4 -3 6 1 10 8 8 6 -3 11 -8 11 -12z m87 -25 c4 -14
-34 -16 -42 -3 -6 10 13 21 28 17 6 -1 12 -8 14 -14z m0 -150 c2 -12 0 -22 -5
-22 -12 0 -33 37 -26 44 12 12 28 0 31 -22z m-70 -27 c2 -2 1 -8 -2 -13 -8
-14 -43 -3 -50 15 -5 12 -1 14 21 8 16 -4 30 -8 31 -10z m42 -55 c0 -5 -2 -10
-4 -10 -3 0 -8 5 -11 10 -3 6 -1 10 4 10 6 0 11 -4 11 -10z"/>
<path d="M1037 873 c-3 -5 1 -16 8 -26 10 -15 14 -15 18 -3 6 16 -18 42 -26
29z"/>
<path d="M403 1023 c-17 -2 -33 -10 -36 -16 -2 -7 1 -57 7 -112 l11 -100 90 0
c112 -1 111 -1 135 -25 29 -29 27 -90 -4 -119 -22 -21 -105 -39 -180 -41 -18
0 -19 -6 -13 -98 7 -121 11 -132 47 -132 34 0 40 -5 121 -115 l64 -87 85 6
c146 11 182 18 176 31 -2 7 -39 60 -80 117 -42 58 -76 109 -76 115 0 5 13 22
29 37 15 15 41 53 57 84 25 50 29 68 29 142 0 67 -5 95 -23 135 -31 68 -85
122 -157 156 -54 26 -69 29 -155 27 -52 0 -109 -3 -127 -5z m307 -743 c0 -5
-4 -10 -9 -10 -6 0 -13 5 -16 10 -3 6 1 10 9 10 9 0 16 -4 16 -10z"/>
<path d="M173 1001 c-34 -3 -65 -10 -69 -14 -10 -10 72 -837 84 -849 10 -10
203 9 216 22 10 10 -67 820 -79 840 -7 11 -50 11 -152 1z m101 -87 c10 -4 16
-18 16 -35 0 -16 5 -29 10 -29 6 0 10 -7 10 -15 0 -8 -4 -15 -10 -15 -5 0 -10
7 -10 15 0 8 -7 15 -15 15 -10 0 -15 10 -15 26 0 22 -2 25 -15 14 -12 -10 -15
-10 -15 2 0 26 15 33 44 22z m-14 -108 c0 -3 -4 -8 -10 -11 -5 -3 -10 -1 -10
4 0 6 5 11 10 11 6 0 10 -2 10 -4z m-74 -68 c-3 -35 -5 -64 -6 -65 0 -2 -4 -3
-8 -3 -7 0 -8 39 -4 108 1 12 7 22 13 22 7 0 9 -21 5 -62z m84 7 c0 -8 -4 -15
-9 -15 -5 0 -11 7 -15 15 -3 9 0 15 9 15 8 0 15 -7 15 -15z m-30 -10 c14 -16
6 -35 -16 -35 -8 0 -14 10 -14 25 0 28 12 32 30 10z m51 -72 c8 -22 7 -30 -7
-40 -13 -9 -21 -10 -31 -2 -10 9 -15 6 -22 -12 -7 -21 -5 -24 15 -27 33 -5 50
-28 34 -47 -9 -10 -9 -15 -1 -15 14 0 15 -47 0 -55 -13 -8 18 -45 38 -45 16 0
16 5 2 31 -12 22 -2 86 11 72 5 -4 11 -33 15 -63 8 -80 7 -94 -5 -98 -17 -6
-11 -42 8 -43 14 0 13 -3 -5 -16 -24 -16 -33 -59 -10 -50 7 3 13 -5 13 -20 2
-23 1 -23 -23 -8 -30 20 -42 12 -24 -16 17 -28 13 -29 -37 -16 -43 12 -51 23
-29 46 9 11 10 14 0 18 -27 10 -12 24 17 18 33 -7 35 -4 19 26 -8 16 -7 25 7
40 15 16 16 23 6 37 -12 17 -18 29 -28 60 -10 33 -24 -11 -20 -67 4 -48 2 -51
-20 -51 -25 0 -25 -1 -28 84 -1 41 3 54 27 77 31 32 38 62 7 34 -21 -19 -42
-13 -22 7 18 18 15 43 -8 63 -12 11 -18 28 -17 46 2 29 12 39 19 19 4 -13 68
17 68 31 0 20 21 8 31 -18z m47 -48 c0 -29 -9 -37 -27 -26 -10 7 -10 12 0 30
18 28 27 27 27 -4z m27 -425 c-3 -5 -14 -10 -23 -10 -15 0 -15 2 -2 10 20 13
33 13 25 0z"/>
<path d="M3183 956 c-56 -6 -105 -14 -108 -18 -8 -8 4 -151 15 -168 6 -10 34
-10 136 0 71 6 139 16 152 21 22 9 23 13 17 67 -13 115 -11 112 -63 111 -26
-1 -93 -7 -149 -13z m147 -57 c0 -5 -10 -19 -22 -31 -13 -13 -19 -15 -16 -6 4
8 2 21 -2 28 -5 8 -7 17 -4 21 6 10 44 -1 44 -12z m-70 -3 c0 -3 -9 -20 -20
-40 -29 -47 -74 -63 -55 -19 5 10 7 23 6 29 0 6 9 16 21 22 24 11 48 15 48 8z"/>
<path d="M1350 775 c-63 -7 -117 -13 -119 -14 -6 -2 7 -173 14 -179 6 -6 257
15 289 25 17 5 18 12 13 85 -4 43 -9 83 -12 89 -7 11 -36 10 -185 -6z m134
-54 c3 -5 -1 -15 -10 -22 -13 -10 -17 -10 -25 2 -5 8 -9 17 -9 22 0 10 38 9
44 -2z m-87 -46 c-24 -37 -45 -51 -59 -37 -13 13 15 61 42 71 37 13 41 4 17
-34z"/>
<path d="M4143 756 c-111 -12 -205 -24 -209 -28 -10 -11 6 -195 19 -212 11
-13 37 -12 235 8 122 12 225 26 229 29 7 8 -12 201 -22 217 -8 12 -3 13 -252
-14z m-83 -71 c0 -8 -7 -15 -16 -15 -14 0 -14 3 -4 15 7 8 14 15 16 15 2 0 4
-7 4 -15z m200 -6 c-7 -11 -14 -18 -17 -15 -8 8 5 36 17 36 7 0 7 -6 0 -21z
m-245 -36 l-8 -28 -8 29 c-9 33 -2 53 13 38 6 -6 7 -22 3 -39z m150 37 c-3 -5
-11 -10 -16 -10 -6 0 -7 5 -4 10 3 6 11 10 16 10 6 0 7 -4 4 -10z m52 -22 c-3
-8 -6 -5 -6 6 -1 11 2 17 5 13 3 -3 4 -12 1 -19z m-155 -85 c7 -9 7 -13 0 -13
-18 0 -34 29 -27 47 7 17 8 16 13 -2 2 -11 9 -26 14 -32z"/>
<path d="M3317 675 c-114 -12 -210 -25 -213 -28 -9 -9 13 -208 23 -218 8 -8
382 24 442 37 24 5 24 5 17 107 -7 104 -16 128 -45 126 -9 -1 -109 -12 -224
-24z m78 -165 c3 -5 1 -10 -4 -10 -6 0 -11 5 -11 10 0 6 2 10 4 10 3 0 8 -4
11 -10z"/>
<path d="M1440 489 c-91 -10 -169 -18 -174 -18 -11 -1 2 -213 14 -225 7 -7
424 28 459 40 13 4 11 75 -5 187 l-6 37 -61 -1 c-34 -1 -136 -10 -227 -20z
m120 -171 c0 -6 -6 -5 -15 2 -8 7 -15 14 -15 16 0 2 7 1 15 -2 8 -4 15 -11 15
-16z"/>
</g>
</svg>
